PathFileType	4	(X/Y/Z)	C:\Users\Basilio\Documents\Thesis Gigler\squatting_fais\c3dfiles\039\SJ_pre4\markers_experimental.trc
DataRate	CameraRate	NumFrames	NumMarkers	Units	OrigDataRate	OrigDataStartFrame	OrigNumFrames
200.000000	200.000000	4	63	mm	200.000000	1117	1788
Frame#	Time	FHD			LBHD			RBHD			C7			T10			CLAV			LSHO			LUUPA			LMUPA			LDUPA			LLEP			LMEP			LRAD			LUL			LRFIN			RSHO			RUPA1			RMUPA			RDUPA			RLEP			RMEP			RRAD			RUL			RUFIN			LASI			RASI			USACR			LSACR			RSACR			LTHI1			LTHI2			LTHI3			LTHI4			LLFC			LMFC			LTIB1			LTIB2			LTIB3			LTIB4			LLMAL			LMMAL			LHEE			LMT1			LMT2			LMT5			RTHI			RTHI2			RTHI3			RTHI4			RLFC			RMFC			RTIB1			RTIB2			RTIB3			RTIB4			RLMAL			RMMAL			RHEE			RMT1			RMT2			RMT5			*61			*62			
		X1	Y1	Z1	X2	Y2	Z2	X3	Y3	Z3	X4	Y4	Z4	X5	Y5	Z5	X6	Y6	Z6	X7	Y7	Z7	X8	Y8	Z8	X9	Y9	Z9	X10	Y10	Z10	X11	Y11	Z11	X12	Y12	Z12	X13	Y13	Z13	X14	Y14	Z14	X15	Y15	Z15	X16	Y16	Z16	X17	Y17	Z17	X18	Y18	Z18	X19	Y19	Z19	X20	Y20	Z20	X21	Y21	Z21	X22	Y22	Z22	X23	Y23	Z23	X24	Y24	Z24	X25	Y25	Z25	X26	Y26	Z26	X27	Y27	Z27	X28	Y28	Z28	X29	Y29	Z29	X30	Y30	Z30	X31	Y31	Z31	X32	Y32	Z32	X33	Y33	Z33	X34	Y34	Z34	X35	Y35	Z35	X36	Y36	Z36	X37	Y37	Z37	X38	Y38	Z38	X39	Y39	Z39	X40	Y40	Z40	X41	Y41	Z41	X42	Y42	Z42	X43	Y43	Z43	X44	Y44	Z44	X45	Y45	Z45	X46	Y46	Z46	X47	Y47	Z47	X48	Y48	Z48	X49	Y49	Z49	X50	Y50	Z50	X51	Y51	Z51	X52	Y52	Z52	X53	Y53	Z53	X54	Y54	Z54	X55	Y55	Z55	X56	Y56	Z56	X57	Y57	Z57	X58	Y58	Z58	X59	Y59	Z59	X60	Y60	Z60	X61	Y61	Z61	X62	Y62	Z62	X63	Y63	Z63	

1118	5.585	-131.1622772216797	2160.107421875	-839.377624511719	-252.8440093994141	2072.9384765625	-972.9627685546877	-243.6106567382813	2085.098876953125	-831.9989013671877	-238.9033508300782	1942.931030273438	-913.1380004882815	-246.2400970458985	1637.6708984375	-909.1243896484377	-86.29028320312501	1896.294921875	-900.0622558593752	-115.2906265258789	1953.952514648438	-1084.077270507813	-185.5728607177735	1821.3798828125	-1260.968017578125	-151.9732055664063	1782.78125	-1257.80810546875	-188.4792785644532	1765.10791015625	-1302.7763671875	-190.8762512207032	1697.755249023438	-1329.81494140625	-275.3236999511719	1695.128295898438	-1298.954833984375	-238.8017883300782	1467.64306640625	-1148.99169921875	-191.520492553711	1437.949951171875	-1199.9873046875	-189.8541259765625	1462.332885742188	-1095.5498046875	-132.072982788086	1940.857177734375	-715.3839111328126	-257.2085266113282	1824.443481445313	-568.4224243164064	-225.3108215332032	1789.367553710938	-551.2664794921876	-276.5217895507813	1772.903076171875	-524.2635498046876	-275.6461791992188	1707.218872070313	-494.4940795898439	-349.6013793945313	1698.715087890625	-543.1022338867189	-248.5760955810547	1484.023071289063	-692.3471679687501	-239.117904663086	1438.947509765625	-631.5221557617189	-190.4725799560547	1457.487426757813	-732.0455932617189	-117.8567199707032	1436.281982421875	-1014.156860351563	-129.7456512451172	1420.548217773438	-793.9346313476565	-286.0007629394532	1509.558959960938	-903.493835449219	-296.4543457031251	1480.52001953125	-932.2398681640627	-299.3835754394532	1480.060546875	-873.4158935546877	-220.4458160400391	1156.153686523438	-1101.98681640625	-190.0805206298828	1077.149658203125	-1110.229370117188	-141.7294158935547	1078.197998046875	-1107.26123046875	-217.4123840332032	1024.7001953125	-1093.75439453125	-222.302963256836	900.5953369140627	-1096.41748046875	-173.1185150146485	869.0487060546877	-992.5820312500002	-162.904052734375	753.4523315429689	-1092.618774414063	-235.6583557128907	712.7833862304689	-1120.724609375	-192.1280822753907	707.9792480468751	-1115.541625976563	-181.1551666259766	625.8222656250001	-1084.044311523438	-247.4320373535157	457.1563110351564	-1112.922607421875	-211.0305786132813	450.2121887207032	-1034.17236328125	-311.2151489257813	447.6743469238282	-1057.03076171875	-112.6711196899414	323.4280090332032	-1068.574462890625	-127.4433517456055	315.7801818847657	-1107.258911132813	-190.5793609619141	306.8468933105469	-1139.734497070313	-208.1377258300782	1152.991943359375	-708.1701660156251	-167.8733825683594	1099.756713867188	-699.7623901367189	-135.5068969726563	1103.503540039063	-703.3787231445314	-193.9392395019532	1018.051574707031	-706.4005126953126	-221.0781707763672	875.7272949218752	-727.4503784179689	-164.7584381103516	858.6011962890627	-833.3356933593752	-147.8733825683594	674.6033325195314	-702.0208740234376	-219.9427032470704	594.0316772460939	-705.9251708984376	-175.0018005371094	594.3289184570314	-690.9337768554689	-142.5918273925782	547.4699707031251	-711.1539916992189	-198.9892578125001	445.2034912109376	-690.7265014648439	-149.350570678711	453.4316711425782	-764.7927246093751	-253.013656616211	430.7268981933595	-757.4048461914064	-41.16510391235352	336.6743469238282	-723.2283935546876	-55.50879669189455	332.7589111328126	-679.7682495117189	-125.1405410766602	316.0864257812501	-649.0875854492189	nan	nan	nan	nan	nan	nan	
1119	5.59	-132.442138671875	2157.3876953125	-838.6329345703127	-255.7441406250001	2071.298583984375	-971.2719726562502	-244.9951171875001	2083.3544921875	-831.344421386719	-239.8181304931641	1940.681762695313	-912.8862304687502	-246.9585266113282	1635.260375976563	-910.3552246093752	-87.22562408447267	1894.313110351563	-899.9378051757815	-116.9210891723633	1952.49169921875	-1083.982788085938	-187.3802032470703	1819.95703125	-1260.743286132813	-153.0343475341797	1781.748901367188	-1258.02099609375	-190.0857391357422	1763.736083984375	-1302.6923828125	-191.7052764892578	1696.335815429688	-1329.926635742188	-276.0103454589844	1692.994384765625	-1298.774780273438	-237.9324951171876	1465.5009765625	-1149.406372070313	-190.9981994628907	1436.231079101563	-1200.509887695313	-188.8798217773438	1460.329345703125	-1096.362915039063	-133.010482788086	1939.075927734375	-715.2910156250001	-257.6675415039063	1822.058227539063	-568.4171142578126	-225.6101226806641	1787.06494140625	-551.1450805664064	-276.7570190429688	1770.408081054688	-524.2017211914064	-275.6121215820313	1704.6767578125	-494.3516540527345	-349.5456848144532	1695.860229492188	-542.9846801757814	-246.8701629638672	1482.10546875	-692.8148193359376	-237.4343566894532	1437.037109375	-631.9436035156251	-189.0243835449219	1455.685913085938	-732.3424072265626	-116.0844650268555	1434.375366210938	-1014.940246582031	-128.3523864746094	1419.046020507813	-794.6153564453127	-284.6468505859376	1507.293212890625	-904.2241210937502	-294.7808227539063	1478.479370117188	-932.8411254882815	-297.9441833496094	1477.967041015625	-874.0953369140627	-219.2778625488282	1153.892822265625	-1102.278686523438	-189.0391998291016	1074.768676757813	-1110.443603515625	-140.6632080078125	1075.707763671875	-1107.333251953125	-216.3889312744141	1022.372802734375	-1093.860717773438	-221.788803100586	898.019958496094	-1096.464233398438	-172.3209991455078	867.0567626953127	-992.4880371093752	-162.0559234619141	751.2420043945314	-1092.272216796875	-234.8354187011719	710.8704223632814	-1121.096557617188	-191.343994140625	705.6246948242189	-1115.569580078125	-180.3308868408203	623.2210693359376	-1084.124633789063	-246.6448669433594	454.8292541503907	-1112.651245117188	-210.4270477294922	447.8615722656251	-1034.300415039063	-310.4585876464844	445.0638122558595	-1056.697143554688	-111.416976928711	322.3806762695313	-1068.85791015625	-125.6170425415039	314.4624633789063	-1107.626220703125	-189.3207092285157	304.8779602050782	-1140.064208984375	-206.8707885742188	1151.215942382813	-708.3724975585939	-166.8352355957032	1098.08935546875	-699.8107299804689	-134.4222869873047	1101.681640625	-703.3967285156251	-193.1103668212891	1016.249877929688	-706.0911865234376	-220.2454833984376	873.8598632812502	-727.2829589843751	-163.7902221679688	856.4506835937502	-833.0760498046877	-147.4965972900391	672.6600341796876	-701.6195678710939	-219.0889892578126	592.4307250976564	-705.1943359375001	-174.39111328125	592.5912475585939	-690.1704101562501	-142.1591339111328	545.5510253906251	-710.2679443359376	-198.7786560058594	443.3031616210939	-689.9516601562501	-148.7893218994141	451.370574951172	-763.9575805664064	-252.594955444336	428.7472229003907	-756.5996704101564	-41.19379425048829	334.6336669921876	-721.7576904296876	-55.73100662231447	330.9067993164063	-678.2102050781251	-125.3040161132813	314.5449523925782	-647.7985229492189	nan	nan	nan	nan	nan	nan	
1120	5.595	-133.8317565917969	2155.033935546875	-837.664245605469	-257.0527038574219	2069.365478515625	-970.6045532226565	-246.1265716552735	2081.026123046875	-830.6134033203127	-240.7699737548829	1938.220947265625	-912.5319824218752	-246.3727111816407	1632.74365234375	-910.7695312500002	-88.11824798583986	1892.539184570313	-899.9777832031252	-117.9687194824219	1950.63037109375	-1083.88134765625	-188.6511383056641	1817.73779296875	-1260.619506835938	-154.3917388916016	1780.087646484375	-1258.087768554688	-191.4816436767578	1761.810668945313	-1302.598388671875	-192.7883453369141	1694.657348632813	-1330.086181640625	-276.7218322753907	1690.972778320313	-1298.449340820313	-237.1122131347657	1463.162963867188	-1149.905639648438	-190.6693420410157	1434.095336914063	-1201.089721679688	-188.2842559814453	1457.97998046875	-1096.73291015625	-133.7889099121094	1936.746826171875	-715.1759033203126	-257.9809875488282	1819.445190429688	-568.2571411132814	-225.8477478027344	1784.56005859375	-551.0023803710939	-276.7144775390626	1767.6162109375	-524.0552368164064	-275.4865112304688	1701.885620117188	-494.2984619140626	-349.4075317382813	1692.714965820313	-542.7875366210939	-245.6293182373047	1479.973510742188	-693.1708374023439	-235.9823608398438	1434.746826171875	-632.5032958984376	-187.4244689941407	1453.9697265625	-732.9306030273439	-114.7823638916016	1431.971313476563	-1015.474670410156	-126.7301940917969	1417.05810546875	-795.2614746093752	-283.6446533203126	1505.0498046875	-905.0703125000002	-293.2738037109376	1476.2109375	-933.3533935546877	-296.4346008300782	1475.813354492188	-874.593200683594	-218.2650756835938	1151.1142578125	-1102.47998046875	-188.0132446289063	1072.417358398438	-1110.6015625	-139.5718383789063	1073.045654296875	-1107.392456054688	-215.4739227294922	1019.806823730469	-1093.79541015625	-220.8970031738282	895.8894042968752	-1096.387939453125	-171.7684631347657	864.611755371094	-992.1856079101565	-161.4075927734375	748.6790771484376	-1092.335693359375	-233.9065399169922	708.2338256835939	-1120.647583007813	-190.4827117919922	703.1602783203126	-1115.3203125	-179.2253112792969	620.7707519531251	-1083.784423828125	-245.466781616211	452.5070190429689	-1112.549072265625	-209.3609161376954	445.4190979003907	-1034.142456054688	-309.6172180175782	442.0388183593751	-1056.52734375	-110.0494613647461	320.0290832519532	-1069.050903320313	-124.2647018432617	312.4623718261719	-1107.917846679688	-187.8437805175782	302.8750915527344	-1140.233032226563	-205.7041015625001	1148.963745117188	-708.6295776367189	-165.924301147461	1095.525024414063	-700.0859985351564	-133.1471862792969	1099.46630859375	-703.4165649414064	-191.8266143798828	1014.029174804688	-706.3297119140626	-219.2978973388672	871.7662353515627	-727.0089721679689	-162.7613220214844	854.2473144531252	-832.7292480468752	-146.9105529785157	670.4680786132814	-700.8612060546876	-218.880355834961	590.2216796875001	-704.7565917968751	-173.9678344726563	590.3841552734376	-689.5482788085939	-141.4972229003907	543.2024536132814	-709.6676025390626	-198.3806457519532	441.252655029297	-689.1842651367189	-148.3609161376953	449.0983886718751	-762.9838867187501	-252.1768646240235	426.5338745117189	-755.9523315429689	-40.76541137695313	332.4472961425782	-720.0925903320314	-55.77330017089845	328.7423400878907	-676.7374267578126	-125.2973022460938	312.4980773925782	-646.3385620117189	nan	nan	nan	nan	nan	nan	
1121	5.600000000000001	-134.8780059814453	2152.45166015625	-837.1036376953127	-258.2489624023438	2067.020263671875	-969.9727172851565	-247.3420867919922	2078.4345703125	-829.983581542969	-241.6140747070313	1935.4208984375	-912.1929931640627	-245.8206634521485	1629.952514648438	-911.2741699218752	-88.66232299804689	1890.56396484375	-900.0164794921877	-119.6354141235352	1948.683471679688	-1083.858154296875	-190.019027709961	1816.070190429688	-1260.547485351563	-155.9281768798828	1778.176391601563	-1257.979248046875	-192.6404876708985	1759.903686523438	-1302.80126953125	-193.7047119140626	1692.694213867188	-1330.287963867188	-277.7383728027344	1688.781372070313	-1298.30859375	-236.5115203857422	1460.853759765625	-1150.181640625	-190.1616516113282	1432.065673828125	-1201.931884765625	-187.0935516357422	1455.526000976563	-1097.590087890625	-134.5826568603516	1934.178833007813	-715.0612792968751	-258.1045837402344	1816.554077148438	-568.1654663085939	-226.078109741211	1781.676391601563	-550.9316406250001	-276.8681030273438	1764.662475585938	-523.9136962890626	-275.3398437500001	1698.8623046875	-494.1362915039064	-349.2019348144532	1689.473999023438	-542.7163085937501	-243.9429473876954	1477.723510742188	-693.5549926757814	-234.7417907714844	1432.307250976563	-633.0182495117189	-185.7238006591797	1451.718383789063	-733.4530639648439	-113.4248657226563	1429.294189453125	-1015.979309082031	-125.2370910644532	1414.755126953125	-795.9489746093752	-281.6797485351563	1502.349487304688	-905.6343383789065	-293.0987548828126	1473.441284179688	-934.4276123046877	-294.9040527343751	1473.251220703125	-875.2250976562502	-216.8062286376954	1148.664916992188	-1102.656005859375	-186.955078125	1069.431762695313	-1110.66650390625	-138.4492340087891	1070.133178710938	-1107.49267578125	-214.5167846679688	1017.246948242188	-1093.8466796875	-220.0242614746094	893.0954589843752	-1096.576293945313	-171.1438751220703	861.8089599609377	-991.9161376953127	-160.3213806152344	745.9967041015626	-1092.190673828125	-232.801254272461	705.2601928710939	-1120.48583984375	-189.5313720703125	700.3386840820314	-1115.241088867188	-178.2254791259766	618.1627197265626	-1083.761840820313	-244.4602966308594	449.839569091797	-1112.352294921875	-208.2065734863282	442.6570739746095	-1033.9755859375	-308.5885314941407	438.9426574707032	-1056.390869140625	-108.4956588745117	317.7749938964844	-1069.291381835938	-123.0126419067383	310.2829589843751	-1107.84130859375	-186.2664184570313	300.5395812988282	-1140.520141601563	-204.369857788086	1146.507934570313	-708.8762207031251	-164.7593536376953	1093.063354492188	-699.9909057617189	-132.2434387207032	1097.03759765625	-703.2134399414064	-190.9395904541016	1011.847351074219	-705.9637451171876	-218.3005981445313	869.4313964843752	-726.7200927734376	-161.5951232910157	851.7115478515627	-832.4434814453127	-146.1946105957032	668.0819091796876	-700.1183471679689	-218.4090270996094	587.8756713867189	-703.9909057617189	-173.4610290527344	587.9978027343751	-688.8413696289064	-141.0339508056641	540.8048706054689	-708.8274536132814	-198.1490325927735	438.9304504394532	-688.4099121093751	-148.1177062988282	446.6239013671876	-761.9702758789064	-251.8181610107422	424.1601867675782	-755.2138671875001	-40.5442123413086	329.7798461914063	-718.9486694335939	-55.5459442138672	326.3932189941407	-675.5163574218751	-125.1700286865235	310.3586120605469	-645.2377929687501	nan	nan	nan	nan	nan	nan	
